<?xml version="1.0" standalone="no"?>
<!DOCTYPE svg PUBLIC "-//W3C//DTD SVG 20010904//EN"
 "http://www.w3.org/TR/2001/REC-SVG-20010904/DTD/svg10.dtd">
<svg version="1.0" xmlns="http://www.w3.org/2000/svg"
 width="300.000000pt" height="300.000000pt" viewBox="0 0 300.000000 300.000000"
 preserveAspectRatio="xMidYMid meet">
<metadata>
Created by potrace 1.11, written by Peter Selinger 2001-2013
</metadata>
<g transform="translate(0.000000,300.000000) scale(0.100000,-0.100000)"
fill="#000000" stroke="none">
<path d="M1369 2500 c-88 -15 -193 -106 -247 -211 -56 -111 -63 -213 -21 -316
12 -30 11 -33 -39 -88 -110 -121 -290 -424 -337 -570 -14 -42 -20 -88 -20
-155 0 -167 58 -281 185 -368 79 -54 85 -69 32 -78 -58 -9 -112 -43 -146 -92
-24 -34 -31 -55 -34 -107 -5 -77 8 -114 54 -155 l34 -29 0 -98 c0 -77 -5 -112
-24 -165 -19 -53 -21 -68 -10 -68 7 0 18 9 24 20 14 26 34 26 27 0 -5 -19 0
-20 101 -20 l107 0 -3 77 c-8 184 71 223 84 41 3 -40 7 -83 10 -95 l4 -23 475
0 475 0 0 58 0 57 29 -55 28 -55 115 -3 115 -3 -48 98 c-27 54 -58 134 -69
177 l-20 80 29 30 c62 66 81 153 52 240 -28 83 -148 176 -228 176 -18 0 -33 3
-33 6 0 4 14 22 31 42 73 83 104 196 96 352 -8 166 -64 316 -185 499 -100 151
-309 348 -400 376 -20 6 -23 12 -18 33 24 105 28 150 17 204 -28 133 -124 208
-242 188z m-49 -94 c0 -15 -21 -26 -51 -26 -24 0 -24 9 -1 26 23 18 52 18 52
0z m-80 -41 c0 -19 -34 -67 -61 -86 -28 -20 -30 -25 -24 -58 10 -53 7 -123 -5
-135 -20 -20 -31 17 -27 90 4 77 36 148 79 179 23 15 38 19 38 10z m-22 -117
c-7 -19 -38 -22 -38 -4 0 10 9 16 21 16 12 0 19 -5 17 -12z m-242 -541 c-136
-229 -201 -451 -176 -594 15 -88 37 -128 107 -193 95 -89 164 -162 159 -168
-3 -2 -44 15 -91 38 -178 88 -262 240 -235 427 11 79 23 116 78 235 49 105
183 328 197 328 2 0 -15 -33 -39 -73z m596 47 c34 -7 88 -67 88 -99 0 -62 -27
-77 -181 -104 -355 -62 -437 -54 -470 46 -14 44 4 73 63 100 115 53 371 83
500 57z m-98 -576 c13 -117 2 -148 -55 -148 l-29 0 0 94 0 95 28 4 c15 2 32 5
38 6 6 0 14 -22 18 -51z m-104 -54 c0 -85 -2 -95 -17 -92 -25 5 -46 54 -51
120 -4 56 -4 57 24 61 16 2 32 5 37 6 4 0 7 -42 7 -95z m-259 -770 c13 -16 4
-44 -18 -51 -18 -6 -57 33 -50 50 8 21 50 22 68 1z m-246 -250 c-3 -24 -11
-44 -17 -44 -6 0 -8 11 -4 28 3 15 9 43 13 62 10 49 17 10 8 -46z"/>
<path d="M960 820 c0 -11 7 -20 15 -20 8 0 15 9 15 20 0 11 -7 20 -15 20 -8 0
-15 -9 -15 -20z"/>
</g>
</svg>
